# xmcd
#
# Track frame offsets: 
#        150
#        20356
#        41133
#        58917
#        79398
#        98746
#        113266
#        134462
#        152319
#        172387
#        189574
#
# Disc length: 2763 seconds
#
# Revision: 0
# Processed by: cddbd v1.5.2PL0 Copyright (c) Steve Scherf et al.
# Submitted via: ExactAudioCopy v0.99pb5
#
DISCID=8e0ac90b
DTITLE=Suzanna Lubrano - Festa Mascarado
DYEAR=2009
DGENRE=Latin
TTITLE0=Festa Mascarado
TTITLE1=Quentura Tropical
TTITLE2=Pensa Na Mi
TTITLE3=Hijo de La Luna
TTITLE4=Nunca Mas
TTITLE5=Tratamento VIP
TTITLE6=I Care 4 You
TTITLE7=Amoureuse
TTITLE8=Friends
TTITLE9=Amor Em Abundan?ia
TTITLE10=Mi Ru Bo
EXTD=
EXTT0=
EXTT1=
EXTT2=
EXTT3=
EXTT4=
EXTT5=
EXTT6=
EXTT7=
EXTT8=
EXTT9=
EXTT10=
PLAYORDER=
